<mxfile host="app.diagrams.net" agent="Mozilla/5.0 (Windows NT 10.0; Win64; x64) AppleWebKit/537.36 (KHTML, like Gecko) Chrome/135.0.0.0 Safari/537.36" version="26.2.13">
  <diagram name="Pagina-1" id="cOpzVtsT3dxu-tYWZYU0">
    <mxGraphModel dx="1507" dy="354" grid="1" gridSize="10" guides="1" tooltips="1" connect="1" arrows="1" fold="1" page="1" pageScale="1" pageWidth="827" pageHeight="1169" math="0" shadow="0">
      <root>
        <mxCell id="0" />
        <mxCell id="1" parent="0" />
        <mxCell id="T3Xej7vSK_ec-wnwtdvm-1" value="autista" style="rounded=0;whiteSpace=wrap;html=1;" parent="1" vertex="1">
          <mxGeometry x="62" y="340" width="120" height="60" as="geometry" />
        </mxCell>
        <mxCell id="T3Xej7vSK_ec-wnwtdvm-2" value="viaggio" style="rounded=0;whiteSpace=wrap;html=1;" parent="1" vertex="1">
          <mxGeometry x="342" y="340" width="120" height="60" as="geometry" />
        </mxCell>
        <mxCell id="T3Xej7vSK_ec-wnwtdvm-3" value="passeggero" style="rounded=0;whiteSpace=wrap;html=1;" parent="1" vertex="1">
          <mxGeometry x="900" y="340" width="120" height="60" as="geometry" />
        </mxCell>
        <mxCell id="T3Xej7vSK_ec-wnwtdvm-4" value="feedback" style="rounded=0;whiteSpace=wrap;html=1;" parent="1" vertex="1">
          <mxGeometry x="342" y="620" width="120" height="60" as="geometry" />
        </mxCell>
        <mxCell id="T3Xej7vSK_ec-wnwtdvm-5" value="" style="endArrow=none;html=1;rounded=0;" parent="1" edge="1">
          <mxGeometry width="50" height="50" relative="1" as="geometry">
            <mxPoint x="2" y="340" as="sourcePoint" />
            <mxPoint x="62" y="340" as="targetPoint" />
          </mxGeometry>
        </mxCell>
        <mxCell id="T3Xej7vSK_ec-wnwtdvm-6" value="nome" style="text;html=1;align=center;verticalAlign=middle;resizable=0;points=[];autosize=1;strokeColor=none;fillColor=none;" parent="1" vertex="1">
          <mxGeometry x="-43" y="320" width="50" height="30" as="geometry" />
        </mxCell>
        <mxCell id="T3Xej7vSK_ec-wnwtdvm-7" value="" style="endArrow=none;html=1;rounded=0;" parent="1" edge="1">
          <mxGeometry width="50" height="50" relative="1" as="geometry">
            <mxPoint x="2" y="370" as="sourcePoint" />
            <mxPoint x="62" y="370" as="targetPoint" />
          </mxGeometry>
        </mxCell>
        <mxCell id="T3Xej7vSK_ec-wnwtdvm-8" value="cognome" style="text;html=1;align=center;verticalAlign=middle;resizable=0;points=[];autosize=1;strokeColor=none;fillColor=none;" parent="1" vertex="1">
          <mxGeometry x="-63" y="350" width="70" height="30" as="geometry" />
        </mxCell>
        <mxCell id="T3Xej7vSK_ec-wnwtdvm-9" value="" style="endArrow=none;html=1;rounded=0;" parent="1" edge="1">
          <mxGeometry width="50" height="50" relative="1" as="geometry">
            <mxPoint x="2" y="400" as="sourcePoint" />
            <mxPoint x="62" y="400" as="targetPoint" />
          </mxGeometry>
        </mxCell>
        <mxCell id="T3Xej7vSK_ec-wnwtdvm-10" value="sesso" style="text;html=1;align=center;verticalAlign=middle;resizable=0;points=[];autosize=1;strokeColor=none;fillColor=none;" parent="1" vertex="1">
          <mxGeometry x="-43" y="380" width="50" height="30" as="geometry" />
        </mxCell>
        <mxCell id="T3Xej7vSK_ec-wnwtdvm-11" value="" style="endArrow=none;html=1;rounded=0;entryX=0;entryY=1;entryDx=0;entryDy=0;" parent="1" source="T3Xej7vSK_ec-wnwtdvm-12" target="T3Xej7vSK_ec-wnwtdvm-1" edge="1">
          <mxGeometry width="50" height="50" relative="1" as="geometry">
            <mxPoint x="62" y="440" as="sourcePoint" />
            <mxPoint x="67" y="430" as="targetPoint" />
          </mxGeometry>
        </mxCell>
        <mxCell id="T3Xej7vSK_ec-wnwtdvm-12" value="numero_patente" style="text;html=1;align=center;verticalAlign=middle;resizable=0;points=[];autosize=1;strokeColor=none;fillColor=none;" parent="1" vertex="1">
          <mxGeometry x="7" y="470" width="110" height="30" as="geometry" />
        </mxCell>
        <mxCell id="T3Xej7vSK_ec-wnwtdvm-13" value="" style="endArrow=none;html=1;rounded=0;entryX=0;entryY=1;entryDx=0;entryDy=0;" parent="1" edge="1">
          <mxGeometry width="50" height="50" relative="1" as="geometry">
            <mxPoint x="182" y="470" as="sourcePoint" />
            <mxPoint x="182" y="400" as="targetPoint" />
          </mxGeometry>
        </mxCell>
        <mxCell id="T3Xej7vSK_ec-wnwtdvm-14" value="scadenza_patente" style="text;html=1;align=center;verticalAlign=middle;resizable=0;points=[];autosize=1;strokeColor=none;fillColor=none;" parent="1" vertex="1">
          <mxGeometry x="122" y="470" width="120" height="30" as="geometry" />
        </mxCell>
        <mxCell id="T3Xej7vSK_ec-wnwtdvm-15" value="" style="endArrow=none;html=1;rounded=0;entryX=0.25;entryY=1;entryDx=0;entryDy=0;" parent="1" edge="1">
          <mxGeometry width="50" height="50" relative="1" as="geometry">
            <mxPoint x="92" y="340" as="sourcePoint" />
            <mxPoint x="92" y="310" as="targetPoint" />
          </mxGeometry>
        </mxCell>
        <mxCell id="T3Xej7vSK_ec-wnwtdvm-16" value="email" style="text;html=1;align=center;verticalAlign=middle;resizable=0;points=[];autosize=1;strokeColor=none;fillColor=none;" parent="1" vertex="1">
          <mxGeometry x="67" y="278" width="50" height="30" as="geometry" />
        </mxCell>
        <mxCell id="T3Xej7vSK_ec-wnwtdvm-17" value="" style="endArrow=none;html=1;rounded=0;entryX=0;entryY=1;entryDx=0;entryDy=0;" parent="1" edge="1">
          <mxGeometry width="50" height="50" relative="1" as="geometry">
            <mxPoint x="62" y="340" as="sourcePoint" />
            <mxPoint x="62" y="270" as="targetPoint" />
          </mxGeometry>
        </mxCell>
        <mxCell id="T3Xej7vSK_ec-wnwtdvm-18" value="" style="endArrow=none;html=1;rounded=0;entryX=0;entryY=1;entryDx=0;entryDy=0;" parent="1" edge="1">
          <mxGeometry width="50" height="50" relative="1" as="geometry">
            <mxPoint x="182" y="340" as="sourcePoint" />
            <mxPoint x="182" y="270" as="targetPoint" />
          </mxGeometry>
        </mxCell>
        <mxCell id="T3Xej7vSK_ec-wnwtdvm-19" value="" style="endArrow=none;html=1;rounded=0;entryX=0.25;entryY=1;entryDx=0;entryDy=0;" parent="1" edge="1">
          <mxGeometry width="50" height="50" relative="1" as="geometry">
            <mxPoint x="142" y="340" as="sourcePoint" />
            <mxPoint x="142" y="310" as="targetPoint" />
          </mxGeometry>
        </mxCell>
        <mxCell id="T3Xej7vSK_ec-wnwtdvm-20" value="recapito_telefono" style="text;html=1;align=center;verticalAlign=middle;resizable=0;points=[];autosize=1;strokeColor=none;fillColor=none;" parent="1" vertex="1">
          <mxGeometry x="-8" y="238" width="120" height="30" as="geometry" />
        </mxCell>
        <mxCell id="T3Xej7vSK_ec-wnwtdvm-21" value="dati_auto" style="text;html=1;align=center;verticalAlign=middle;resizable=0;points=[];autosize=1;strokeColor=none;fillColor=none;" parent="1" vertex="1">
          <mxGeometry x="147" y="238" width="70" height="30" as="geometry" />
        </mxCell>
        <mxCell id="T3Xej7vSK_ec-wnwtdvm-22" value="foto" style="text;html=1;align=center;verticalAlign=middle;resizable=0;points=[];autosize=1;strokeColor=none;fillColor=none;" parent="1" vertex="1">
          <mxGeometry x="122" y="278" width="40" height="30" as="geometry" />
        </mxCell>
        <mxCell id="T3Xej7vSK_ec-wnwtdvm-24" value="" style="endArrow=none;html=1;rounded=0;entryX=0;entryY=0.5;entryDx=0;entryDy=0;" parent="1" target="T3Xej7vSK_ec-wnwtdvm-2" edge="1">
          <mxGeometry width="50" height="50" relative="1" as="geometry">
            <mxPoint x="302" y="370" as="sourcePoint" />
            <mxPoint x="172" y="390" as="targetPoint" />
          </mxGeometry>
        </mxCell>
        <mxCell id="T3Xej7vSK_ec-wnwtdvm-25" value="" style="endArrow=none;html=1;rounded=0;entryX=0;entryY=0.5;entryDx=0;entryDy=0;" parent="1" edge="1">
          <mxGeometry width="50" height="50" relative="1" as="geometry">
            <mxPoint x="182" y="369.66" as="sourcePoint" />
            <mxPoint x="222" y="369.66" as="targetPoint" />
          </mxGeometry>
        </mxCell>
        <mxCell id="T3Xej7vSK_ec-wnwtdvm-27" value="crea" style="rhombus;whiteSpace=wrap;html=1;" parent="1" vertex="1">
          <mxGeometry x="222" y="330" width="80" height="80" as="geometry" />
        </mxCell>
        <mxCell id="T3Xej7vSK_ec-wnwtdvm-28" value="" style="endArrow=none;html=1;rounded=0;entryX=0;entryY=0.5;entryDx=0;entryDy=0;" parent="1" edge="1">
          <mxGeometry width="50" height="50" relative="1" as="geometry">
            <mxPoint x="860" y="365" as="sourcePoint" />
            <mxPoint x="900" y="365" as="targetPoint" />
          </mxGeometry>
        </mxCell>
        <mxCell id="T3Xej7vSK_ec-wnwtdvm-29" value="" style="endArrow=none;html=1;rounded=0;entryX=0;entryY=0.5;entryDx=0;entryDy=0;" parent="1" edge="1">
          <mxGeometry width="50" height="50" relative="1" as="geometry">
            <mxPoint x="462" y="364.66" as="sourcePoint" />
            <mxPoint x="502" y="364.66" as="targetPoint" />
          </mxGeometry>
        </mxCell>
        <mxCell id="T3Xej7vSK_ec-wnwtdvm-30" value="appartengono" style="rhombus;whiteSpace=wrap;html=1;" parent="1" vertex="1">
          <mxGeometry x="502" y="325" width="80" height="80" as="geometry" />
        </mxCell>
        <mxCell id="T3Xej7vSK_ec-wnwtdvm-31" value="" style="endArrow=none;html=1;rounded=0;entryX=0;entryY=1;entryDx=0;entryDy=0;" parent="1" edge="1">
          <mxGeometry width="50" height="50" relative="1" as="geometry">
            <mxPoint x="342" y="340" as="sourcePoint" />
            <mxPoint x="342" y="270" as="targetPoint" />
          </mxGeometry>
        </mxCell>
        <mxCell id="T3Xej7vSK_ec-wnwtdvm-32" value="" style="endArrow=none;html=1;rounded=0;entryX=0;entryY=1;entryDx=0;entryDy=0;" parent="1" edge="1">
          <mxGeometry width="50" height="50" relative="1" as="geometry">
            <mxPoint x="401.71" y="340" as="sourcePoint" />
            <mxPoint x="401.71" y="270" as="targetPoint" />
          </mxGeometry>
        </mxCell>
        <mxCell id="T3Xej7vSK_ec-wnwtdvm-33" value="" style="endArrow=none;html=1;rounded=0;entryX=0;entryY=1;entryDx=0;entryDy=0;" parent="1" edge="1">
          <mxGeometry width="50" height="50" relative="1" as="geometry">
            <mxPoint x="462" y="340" as="sourcePoint" />
            <mxPoint x="462" y="270" as="targetPoint" />
          </mxGeometry>
        </mxCell>
        <mxCell id="T3Xej7vSK_ec-wnwtdvm-34" value="" style="endArrow=none;html=1;rounded=0;entryX=0;entryY=1;entryDx=0;entryDy=0;" parent="1" edge="1">
          <mxGeometry width="50" height="50" relative="1" as="geometry">
            <mxPoint x="462" y="460" as="sourcePoint" />
            <mxPoint x="462" y="390" as="targetPoint" />
          </mxGeometry>
        </mxCell>
        <mxCell id="T3Xej7vSK_ec-wnwtdvm-35" value="" style="endArrow=none;html=1;rounded=0;entryX=0;entryY=1;entryDx=0;entryDy=0;" parent="1" edge="1">
          <mxGeometry width="50" height="50" relative="1" as="geometry">
            <mxPoint x="342" y="470" as="sourcePoint" />
            <mxPoint x="342" y="400" as="targetPoint" />
          </mxGeometry>
        </mxCell>
        <mxCell id="T3Xej7vSK_ec-wnwtdvm-36" value="" style="endArrow=none;html=1;rounded=0;exitX=0.77;exitY=0.039;exitDx=0;exitDy=0;exitPerimeter=0;" parent="1" source="T3Xej7vSK_ec-wnwtdvm-71" edge="1">
          <mxGeometry width="50" height="50" relative="1" as="geometry">
            <mxPoint x="306.58" y="338" as="sourcePoint" />
            <mxPoint x="310" y="290" as="targetPoint" />
          </mxGeometry>
        </mxCell>
        <mxCell id="T3Xej7vSK_ec-wnwtdvm-37" value="città_partenza" style="text;html=1;align=center;verticalAlign=middle;resizable=0;points=[];autosize=1;strokeColor=none;fillColor=none;" parent="1" vertex="1">
          <mxGeometry x="272" y="238" width="100" height="30" as="geometry" />
        </mxCell>
        <mxCell id="T3Xej7vSK_ec-wnwtdvm-38" value="città_arrivo" style="text;html=1;align=center;verticalAlign=middle;resizable=0;points=[];autosize=1;strokeColor=none;fillColor=none;" parent="1" vertex="1">
          <mxGeometry x="362" y="238" width="80" height="30" as="geometry" />
        </mxCell>
        <mxCell id="T3Xej7vSK_ec-wnwtdvm-39" value="costo" style="text;html=1;align=center;verticalAlign=middle;resizable=0;points=[];autosize=1;strokeColor=none;fillColor=none;" parent="1" vertex="1">
          <mxGeometry x="437" y="238" width="50" height="30" as="geometry" />
        </mxCell>
        <mxCell id="T3Xej7vSK_ec-wnwtdvm-40" value="" style="endArrow=none;html=1;rounded=0;entryX=0.25;entryY=1;entryDx=0;entryDy=0;" parent="1" edge="1">
          <mxGeometry width="50" height="50" relative="1" as="geometry">
            <mxPoint x="372" y="340" as="sourcePoint" />
            <mxPoint x="372" y="310" as="targetPoint" />
          </mxGeometry>
        </mxCell>
        <mxCell id="T3Xej7vSK_ec-wnwtdvm-41" value="" style="endArrow=none;html=1;rounded=0;entryX=0.25;entryY=1;entryDx=0;entryDy=0;" parent="1" edge="1">
          <mxGeometry width="50" height="50" relative="1" as="geometry">
            <mxPoint x="435" y="340" as="sourcePoint" />
            <mxPoint x="435" y="310" as="targetPoint" />
          </mxGeometry>
        </mxCell>
        <mxCell id="T3Xej7vSK_ec-wnwtdvm-42" value="" style="endArrow=none;html=1;rounded=0;" parent="1" edge="1">
          <mxGeometry width="50" height="50" relative="1" as="geometry">
            <mxPoint x="-18" y="430" as="sourcePoint" />
            <mxPoint x="62" y="400" as="targetPoint" />
          </mxGeometry>
        </mxCell>
        <mxCell id="T3Xej7vSK_ec-wnwtdvm-43" value="&lt;u&gt;id_autista&lt;/u&gt;" style="text;html=1;align=center;verticalAlign=middle;resizable=0;points=[];autosize=1;strokeColor=none;fillColor=none;" parent="1" vertex="1">
          <mxGeometry x="-73" y="420" width="70" height="30" as="geometry" />
        </mxCell>
        <mxCell id="T3Xej7vSK_ec-wnwtdvm-44" value="id_viaggio" style="text;html=1;align=center;verticalAlign=middle;resizable=0;points=[];autosize=1;strokeColor=none;fillColor=none;fontStyle=4" parent="1" vertex="1">
          <mxGeometry x="332" y="278" width="80" height="30" as="geometry" />
        </mxCell>
        <mxCell id="T3Xej7vSK_ec-wnwtdvm-45" value="data" style="text;html=1;align=center;verticalAlign=middle;resizable=0;points=[];autosize=1;strokeColor=none;fillColor=none;" parent="1" vertex="1">
          <mxGeometry x="407" y="278" width="50" height="30" as="geometry" />
        </mxCell>
        <mxCell id="T3Xej7vSK_ec-wnwtdvm-46" value="orario" style="text;html=1;align=center;verticalAlign=middle;resizable=0;points=[];autosize=1;strokeColor=none;fillColor=none;" parent="1" vertex="1">
          <mxGeometry x="437" y="468" width="50" height="30" as="geometry" />
        </mxCell>
        <mxCell id="T3Xej7vSK_ec-wnwtdvm-47" value="tempo" style="text;html=1;align=center;verticalAlign=middle;resizable=0;points=[];autosize=1;strokeColor=none;fillColor=none;" parent="1" vertex="1">
          <mxGeometry x="262" y="268" width="60" height="30" as="geometry" />
        </mxCell>
        <mxCell id="T3Xej7vSK_ec-wnwtdvm-48" value="numero_passeggeri" style="text;html=1;align=center;verticalAlign=middle;resizable=0;points=[];autosize=1;strokeColor=none;fillColor=none;" parent="1" vertex="1">
          <mxGeometry x="242" y="468" width="130" height="30" as="geometry" />
        </mxCell>
        <mxCell id="T3Xej7vSK_ec-wnwtdvm-49" value="" style="endArrow=none;html=1;rounded=0;entryX=0;entryY=0.75;entryDx=0;entryDy=0;" parent="1" target="T3Xej7vSK_ec-wnwtdvm-2" edge="1">
          <mxGeometry width="50" height="50" relative="1" as="geometry">
            <mxPoint x="320" y="420" as="sourcePoint" />
            <mxPoint x="322" y="405" as="targetPoint" />
          </mxGeometry>
        </mxCell>
        <mxCell id="T3Xej7vSK_ec-wnwtdvm-50" value="soste" style="text;html=1;align=center;verticalAlign=middle;resizable=0;points=[];autosize=1;strokeColor=none;fillColor=none;" parent="1" vertex="1">
          <mxGeometry x="292" y="420" width="50" height="30" as="geometry" />
        </mxCell>
        <mxCell id="T3Xej7vSK_ec-wnwtdvm-53" value="" style="endArrow=none;html=1;rounded=0;entryX=0;entryY=1;entryDx=0;entryDy=0;" parent="1" edge="1">
          <mxGeometry width="50" height="50" relative="1" as="geometry">
            <mxPoint x="900" y="340" as="sourcePoint" />
            <mxPoint x="900" y="270" as="targetPoint" />
          </mxGeometry>
        </mxCell>
        <mxCell id="T3Xej7vSK_ec-wnwtdvm-54" value="" style="endArrow=none;html=1;rounded=0;entryX=0;entryY=1;entryDx=0;entryDy=0;" parent="1" edge="1">
          <mxGeometry width="50" height="50" relative="1" as="geometry">
            <mxPoint x="959.71" y="340" as="sourcePoint" />
            <mxPoint x="959.71" y="270" as="targetPoint" />
          </mxGeometry>
        </mxCell>
        <mxCell id="T3Xej7vSK_ec-wnwtdvm-55" value="" style="endArrow=none;html=1;rounded=0;entryX=0;entryY=1;entryDx=0;entryDy=0;" parent="1" edge="1">
          <mxGeometry width="50" height="50" relative="1" as="geometry">
            <mxPoint x="1020" y="340" as="sourcePoint" />
            <mxPoint x="1020" y="270" as="targetPoint" />
          </mxGeometry>
        </mxCell>
        <mxCell id="T3Xej7vSK_ec-wnwtdvm-56" value="id_passeggero" style="text;html=1;align=center;verticalAlign=middle;resizable=0;points=[];autosize=1;strokeColor=none;fillColor=none;fontStyle=4" parent="1" vertex="1">
          <mxGeometry x="820" y="238" width="100" height="30" as="geometry" />
        </mxCell>
        <mxCell id="T3Xej7vSK_ec-wnwtdvm-57" value="cognome" style="text;html=1;align=center;verticalAlign=middle;resizable=0;points=[];autosize=1;strokeColor=none;fillColor=none;" parent="1" vertex="1">
          <mxGeometry x="925" y="238" width="70" height="30" as="geometry" />
        </mxCell>
        <mxCell id="T3Xej7vSK_ec-wnwtdvm-58" value="telefono" style="text;html=1;align=center;verticalAlign=middle;resizable=0;points=[];autosize=1;strokeColor=none;fillColor=none;" parent="1" vertex="1">
          <mxGeometry x="985" y="238" width="70" height="30" as="geometry" />
        </mxCell>
        <mxCell id="T3Xej7vSK_ec-wnwtdvm-59" value="" style="endArrow=none;html=1;rounded=0;entryX=0.25;entryY=1;entryDx=0;entryDy=0;" parent="1" edge="1">
          <mxGeometry width="50" height="50" relative="1" as="geometry">
            <mxPoint x="930" y="340" as="sourcePoint" />
            <mxPoint x="930" y="310" as="targetPoint" />
          </mxGeometry>
        </mxCell>
        <mxCell id="T3Xej7vSK_ec-wnwtdvm-60" value="" style="endArrow=none;html=1;rounded=0;entryX=0.25;entryY=1;entryDx=0;entryDy=0;" parent="1" edge="1">
          <mxGeometry width="50" height="50" relative="1" as="geometry">
            <mxPoint x="993" y="340" as="sourcePoint" />
            <mxPoint x="993" y="310" as="targetPoint" />
          </mxGeometry>
        </mxCell>
        <mxCell id="T3Xej7vSK_ec-wnwtdvm-61" value="nome" style="text;html=1;align=center;verticalAlign=middle;resizable=0;points=[];autosize=1;strokeColor=none;fillColor=none;" parent="1" vertex="1">
          <mxGeometry x="905" y="278" width="50" height="30" as="geometry" />
        </mxCell>
        <mxCell id="T3Xej7vSK_ec-wnwtdvm-62" value="documento" style="text;html=1;align=center;verticalAlign=middle;resizable=0;points=[];autosize=1;strokeColor=none;fillColor=none;" parent="1" vertex="1">
          <mxGeometry x="950" y="278" width="80" height="30" as="geometry" />
        </mxCell>
        <mxCell id="T3Xej7vSK_ec-wnwtdvm-63" value="" style="endArrow=none;html=1;rounded=0;entryX=1;entryY=0.5;entryDx=0;entryDy=0;" parent="1" target="T3Xej7vSK_ec-wnwtdvm-3" edge="1">
          <mxGeometry width="50" height="50" relative="1" as="geometry">
            <mxPoint x="1060" y="370" as="sourcePoint" />
            <mxPoint x="1070" y="355" as="targetPoint" />
          </mxGeometry>
        </mxCell>
        <mxCell id="T3Xej7vSK_ec-wnwtdvm-64" value="email" style="text;html=1;align=center;verticalAlign=middle;resizable=0;points=[];autosize=1;strokeColor=none;fillColor=none;" parent="1" vertex="1">
          <mxGeometry x="1055" y="350" width="50" height="30" as="geometry" />
        </mxCell>
        <mxCell id="T3Xej7vSK_ec-wnwtdvm-67" value="" style="endArrow=none;html=1;rounded=0;entryX=0.988;entryY=0.658;entryDx=0;entryDy=0;entryPerimeter=0;" parent="1" edge="1">
          <mxGeometry width="50" height="50" relative="1" as="geometry">
            <mxPoint x="503.44" y="420" as="sourcePoint" />
            <mxPoint x="461.99999999999994" y="379.4799999999999" as="targetPoint" />
          </mxGeometry>
        </mxCell>
        <mxCell id="T3Xej7vSK_ec-wnwtdvm-68" value="id_autista" style="text;html=1;align=center;verticalAlign=middle;resizable=0;points=[];autosize=1;strokeColor=none;fillColor=none;" parent="1" vertex="1">
          <mxGeometry x="487" y="420" width="70" height="30" as="geometry" />
        </mxCell>
        <mxCell id="T3Xej7vSK_ec-wnwtdvm-71" value="(1,1&lt;span style=&quot;color: rgba(0, 0, 0, 0); font-family: monospace; font-size: 0px; text-align: start;&quot;&gt;%3CmxGraphModel%3E%3Croot%3E%3CmxCell%20id%3D%220%22%2F%3E%3CmxCell%20id%3D%221%22%20parent%3D%220%22%2F%3E%3CmxCell%20id%3D%222%22%20value%3D%22%22%20style%3D%22endArrow%3Dnone%3Bhtml%3D1%3Brounded%3D0%3BentryX%3D0.25%3BentryY%3D1%3BentryDx%3D0%3BentryDy%3D0%3B%22%20edge%3D%221%22%20parent%3D%221%22%3E%3CmxGeometry%20width%3D%2250%22%20height%3D%2250%22%20relative%3D%221%22%20as%3D%22geometry%22%3E%3CmxPoint%20x%3D%22349.43%22%20y%3D%22430%22%20as%3D%22sourcePoint%22%2F%3E%3CmxPoint%20x%3D%22349.43%22%20y%3D%22400%22%20as%3D%22targetPoint%22%2F%3E%3C%2FmxGeometry%3E%3C%2FmxCell%3E%3CmxCell%20id%3D%223%22%20value%3D%22soste%22%20style%3D%22text%3Bhtml%3D1%3Balign%3Dcenter%3BverticalAlign%3Dmiddle%3Bresizable%3D0%3Bpoints%3D%5B%5D%3Bautosize%3D1%3BstrokeColor%3Dnone%3BfillColor%3Dnone%3B%22%20vertex%3D%221%22%20parent%3D%221%22%3E%3CmxGeometry%20x%3D%22325%22%20y%3D%22420%22%20width%3D%2250%22%20height%3D%2230%22%20as%3D%22geometry%22%2F%3E%3C%2FmxCell%3E%3C%2Froot%3E%3C%2FmxGraphModel%3E&lt;/span&gt;)" style="text;html=1;align=center;verticalAlign=middle;resizable=0;points=[];autosize=1;strokeColor=none;fillColor=none;" parent="1" vertex="1">
          <mxGeometry x="302" y="340" width="50" height="30" as="geometry" />
        </mxCell>
        <mxCell id="T3Xej7vSK_ec-wnwtdvm-72" value="(1,n&lt;span style=&quot;color: rgba(0, 0, 0, 0); font-family: monospace; font-size: 0px; text-align: start;&quot;&gt;%3CmxGraphModel%3E%3Croot%3E%3CmxCell%20id%3D%220%22%2F%3E%3CmxCell%20id%3D%221%22%20parent%3D%220%22%2F%3E%3CmxCell%20id%3D%222%22%20value%3D%22%22%20style%3D%22endArrow%3Dnone%3Bhtml%3D1%3Brounded%3D0%3BentryX%3D0.25%3BentryY%3D1%3BentryDx%3D0%3BentryDy%3D0%3B%22%20edge%3D%221%22%20parent%3D%221%22%3E%3CmxGeometry%20width%3D%2250%22%20height%3D%2250%22%20relative%3D%221%22%20as%3D%22geometry%22%3E%3CmxPoint%20x%3D%22349.43%22%20y%3D%22430%22%20as%3D%22sourcePoint%22%2F%3E%3CmxPoint%20x%3D%22349.43%22%20y%3D%22400%22%20as%3D%22targetPoint%22%2F%3E%3C%2FmxGeometry%3E%3C%2FmxCell%3E%3CmxCell%20id%3D%223%22%20value%3D%22soste%22%20style%3D%22text%3Bhtml%3D1%3Balign%3Dcenter%3BverticalAlign%3Dmiddle%3Bresizable%3D0%3Bpoints%3D%5B%5D%3Bautosize%3D1%3BstrokeColor%3Dnone%3BfillColor%3Dnone%3B%22%20vertex%3D%221%22%20parent%3D%221%22%3E%3CmxGeometry%20x%3D%22325%22%20y%3D%22420%22%20width%3D%2250%22%20height%3D%2230%22%20as%3D%22geometry%22%2F%3E%3C%2FmxCell%3E%3C%2Froot%3E%3C%2FmxGraphModel%3&lt;/span&gt;)" style="text;html=1;align=center;verticalAlign=middle;resizable=0;points=[];autosize=1;strokeColor=none;fillColor=none;" parent="1" vertex="1">
          <mxGeometry x="172" y="340" width="50" height="30" as="geometry" />
        </mxCell>
        <mxCell id="T3Xej7vSK_ec-wnwtdvm-73" value="(n,1&lt;span style=&quot;color: rgba(0, 0, 0, 0); font-family: monospace; font-size: 0px; text-align: start;&quot;&gt;%3CmxGraphModel%3E%3Croot%3E%3CmxCell%20id%3D%220%22%2F%3E%3CmxCell%20id%3D%221%22%20parent%3D%220%22%2F%3E%3CmxCell%20id%3D%222%22%20value%3D%22%22%20style%3D%22endArrow%3Dnone%3Bhtml%3D1%3Brounded%3D0%3BentryX%3D0.25%3BentryY%3D1%3BentryDx%3D0%3BentryDy%3D0%3B%22%20edge%3D%221%22%20parent%3D%221%22%3E%3CmxGeometry%20width%3D%2250%22%20height%3D%2250%22%20relative%3D%221%22%20as%3D%22geometry%22%3E%3CmxPoint%20x%3D%22349.43%22%20y%3D%22430%22%20as%3D%22sourcePoint%22%2F%3E%3CmxPoint%20x%3D%22349.43%22%20y%3D%22400%22%20as%3D%22targetPoint%22%2F%3E%3C%2FmxGeometry%3E%3C%2FmxCell%3E%3CmxCell%20id%3D%223%22%20value%3D%22soste%22%20style%3D%22text%3Bhtml%3D1%3Balign%3Dcenter%3BverticalAlign%3Dmiddle%3Bresizable%3D0%3Bpoints%3D%5B%5D%3Bautosize%3D1%3BstrokeColor%3Dnone%3BfillColor%3Dnone%3B%22%20vertex%3D%221%22%20parent%3D%221%22%3E%3CmxGeometry%20x%3D%22325%22%20y%3D%22420%22%20width%3D%2250%22%20height%3D%2230%22%20as%3D%22geometry%22%2F%3E%3C%2FmxCell%3E%3C%2Froot%3E%3C%2FmxGraphModel%3E&lt;/span&gt;)" style="text;html=1;align=center;verticalAlign=middle;resizable=0;points=[];autosize=1;strokeColor=none;fillColor=none;" parent="1" vertex="1">
          <mxGeometry x="860" y="340" width="50" height="30" as="geometry" />
        </mxCell>
        <mxCell id="T3Xej7vSK_ec-wnwtdvm-74" value="(1,n&lt;span style=&quot;color: rgba(0, 0, 0, 0); font-family: monospace; font-size: 0px; text-align: start;&quot;&gt;%3CmxGraphModel%3E%3Croot%3E%3CmxCell%20id%3D%220%22%2F%3E%3CmxCell%20id%3D%221%22%20parent%3D%220%22%2F%3E%3CmxCell%20id%3D%222%22%20value%3D%22%22%20style%3D%22endArrow%3Dnone%3Bhtml%3D1%3Brounded%3D0%3BentryX%3D0.25%3BentryY%3D1%3BentryDx%3D0%3BentryDy%3D0%3B%22%20edge%3D%221%22%20parent%3D%221%22%3E%3CmxGeometry%20width%3D%2250%22%20height%3D%2250%22%20relative%3D%221%22%20as%3D%22geometry%22%3E%3CmxPoint%20x%3D%22349.43%22%20y%3D%22430%22%20as%3D%22sourcePoint%22%2F%3E%3CmxPoint%20x%3D%22349.43%22%20y%3D%22400%22%20as%3D%22targetPoint%22%2F%3E%3C%2FmxGeometry%3E%3C%2FmxCell%3E%3CmxCell%20id%3D%223%22%20value%3D%22soste%22%20style%3D%22text%3Bhtml%3D1%3Balign%3Dcenter%3BverticalAlign%3Dmiddle%3Bresizable%3D0%3Bpoints%3D%5B%5D%3Bautosize%3D1%3BstrokeColor%3Dnone%3BfillColor%3Dnone%3B%22%20vertex%3D%221%22%20parent%3D%221%22%3E%3CmxGeometry%20x%3D%22325%22%20y%3D%22420%22%20width%3D%2250%22%20height%3D%2230%22%20as%3D%22geometry%22%2F%3E%3C%2FmxCell%3E%3C%2Froot%3E%3C%2FmxGraphModel%3&lt;/span&gt;)" style="text;html=1;align=center;verticalAlign=middle;resizable=0;points=[];autosize=1;strokeColor=none;fillColor=none;" parent="1" vertex="1">
          <mxGeometry x="452" y="340" width="50" height="30" as="geometry" />
        </mxCell>
        <mxCell id="T3Xej7vSK_ec-wnwtdvm-75" value="ottiene" style="rhombus;whiteSpace=wrap;html=1;" parent="1" vertex="1">
          <mxGeometry x="920" y="610" width="80" height="80" as="geometry" />
        </mxCell>
        <mxCell id="T3Xej7vSK_ec-wnwtdvm-76" value="riceve" style="rhombus;whiteSpace=wrap;html=1;" parent="1" vertex="1">
          <mxGeometry x="82" y="610" width="80" height="80" as="geometry" />
        </mxCell>
        <mxCell id="T3Xej7vSK_ec-wnwtdvm-77" value="" style="endArrow=none;html=1;rounded=0;exitX=0.5;exitY=0;exitDx=0;exitDy=0;entryX=0.5;entryY=1;entryDx=0;entryDy=0;" parent="1" source="T3Xej7vSK_ec-wnwtdvm-76" target="T3Xej7vSK_ec-wnwtdvm-1" edge="1">
          <mxGeometry width="50" height="50" relative="1" as="geometry">
            <mxPoint x="262" y="520" as="sourcePoint" />
            <mxPoint x="312" y="470" as="targetPoint" />
          </mxGeometry>
        </mxCell>
        <mxCell id="T3Xej7vSK_ec-wnwtdvm-78" value="" style="endArrow=none;html=1;rounded=0;exitX=1;exitY=0.5;exitDx=0;exitDy=0;entryX=0;entryY=0.5;entryDx=0;entryDy=0;" parent="1" source="T3Xej7vSK_ec-wnwtdvm-76" target="T3Xej7vSK_ec-wnwtdvm-4" edge="1">
          <mxGeometry width="50" height="50" relative="1" as="geometry">
            <mxPoint x="262" y="600" as="sourcePoint" />
            <mxPoint x="312" y="550" as="targetPoint" />
          </mxGeometry>
        </mxCell>
        <mxCell id="T3Xej7vSK_ec-wnwtdvm-80" value="" style="endArrow=none;html=1;rounded=0;exitX=1;exitY=0.5;exitDx=0;exitDy=0;entryX=0;entryY=0.5;entryDx=0;entryDy=0;" parent="1" target="T3Xej7vSK_ec-wnwtdvm-75" edge="1">
          <mxGeometry width="50" height="50" relative="1" as="geometry">
            <mxPoint x="462" y="649.71" as="sourcePoint" />
            <mxPoint x="850" y="650" as="targetPoint" />
          </mxGeometry>
        </mxCell>
        <mxCell id="T3Xej7vSK_ec-wnwtdvm-81" value="" style="endArrow=none;html=1;rounded=0;exitX=0.5;exitY=0;exitDx=0;exitDy=0;entryX=0.5;entryY=1;entryDx=0;entryDy=0;" parent="1" source="T3Xej7vSK_ec-wnwtdvm-75" target="T3Xej7vSK_ec-wnwtdvm-3" edge="1">
          <mxGeometry width="50" height="50" relative="1" as="geometry">
            <mxPoint x="682" y="530" as="sourcePoint" />
            <mxPoint x="682" y="400" as="targetPoint" />
          </mxGeometry>
        </mxCell>
        <mxCell id="T3Xej7vSK_ec-wnwtdvm-82" value="(1,1&lt;span style=&quot;color: rgba(0, 0, 0, 0); font-family: monospace; font-size: 0px; text-align: start;&quot;&gt;%3CmxGraphModel%3E%3Croot%3E%3CmxCell%20id%3D%220%22%2F%3E%3CmxCell%20id%3D%221%22%20parent%3D%220%22%2F%3E%3CmxCell%20id%3D%222%22%20value%3D%22%22%20style%3D%22endArrow%3Dnone%3Bhtml%3D1%3Brounded%3D0%3BentryX%3D0.25%3BentryY%3D1%3BentryDx%3D0%3BentryDy%3D0%3B%22%20edge%3D%221%22%20parent%3D%221%22%3E%3CmxGeometry%20width%3D%2250%22%20height%3D%2250%22%20relative%3D%221%22%20as%3D%22geometry%22%3E%3CmxPoint%20x%3D%22349.43%22%20y%3D%22430%22%20as%3D%22sourcePoint%22%2F%3E%3CmxPoint%20x%3D%22349.43%22%20y%3D%22400%22%20as%3D%22targetPoint%22%2F%3E%3C%2FmxGeometry%3E%3C%2FmxCell%3E%3CmxCell%20id%3D%223%22%20value%3D%22soste%22%20style%3D%22text%3Bhtml%3D1%3Balign%3Dcenter%3BverticalAlign%3Dmiddle%3Bresizable%3D0%3Bpoints%3D%5B%5D%3Bautosize%3D1%3BstrokeColor%3Dnone%3BfillColor%3Dnone%3B%22%20vertex%3D%221%22%20parent%3D%221%22%3E%3CmxGeometry%20x%3D%22325%22%20y%3D%22420%22%20width%3D%2250%22%20height%3D%2230%22%20as%3D%22geometry%22%2F%3E%3C%2FmxCell%3E%3C%2Froot%3E%3C%2FmxGraphModel%3&lt;/span&gt;)" style="text;html=1;align=center;verticalAlign=middle;resizable=0;points=[];autosize=1;strokeColor=none;fillColor=none;" parent="1" vertex="1">
          <mxGeometry x="462" y="620" width="50" height="30" as="geometry" />
        </mxCell>
        <mxCell id="T3Xej7vSK_ec-wnwtdvm-83" value="(1,n&lt;span style=&quot;color: rgba(0, 0, 0, 0); font-family: monospace; font-size: 0px; text-align: start;&quot;&gt;%3CmxGraphModel%3E%3Croot%3E%3CmxCell%20id%3D%220%22%2F%3E%3CmxCell%20id%3D%221%22%20parent%3D%220%22%2F%3E%3CmxCell%20id%3D%222%22%20value%3D%22%22%20style%3D%22endArrow%3Dnone%3Bhtml%3D1%3Brounded%3D0%3BentryX%3D0.25%3BentryY%3D1%3BentryDx%3D0%3BentryDy%3D0%3B%22%20edge%3D%221%22%20parent%3D%221%22%3E%3CmxGeometry%20width%3D%2250%22%20height%3D%2250%22%20relative%3D%221%22%20as%3D%22geometry%22%3E%3CmxPoint%20x%3D%22349.43%22%20y%3D%22430%22%20as%3D%22sourcePoint%22%2F%3E%3CmxPoint%20x%3D%22349.43%22%20y%3D%22400%22%20as%3D%22targetPoint%22%2F%3E%3C%2FmxGeometry%3E%3C%2FmxCell%3E%3CmxCell%20id%3D%223%22%20value%3D%22soste%22%20style%3D%22text%3Bhtml%3D1%3Balign%3Dcenter%3BverticalAlign%3Dmiddle%3Bresizable%3D0%3Bpoints%3D%5B%5D%3Bautosize%3D1%3BstrokeColor%3Dnone%3BfillColor%3Dnone%3B%22%20vertex%3D%221%22%20parent%3D%221%22%3E%3CmxGeometry%20x%3D%22325%22%20y%3D%22420%22%20width%3D%2250%22%20height%3D%2230%22%20as%3D%22geometry%22%2F%3E%3C%2FmxCell%3E%3C%2Froot%3E%3C%2FmxGraphModel%3&lt;/span&gt;)" style="text;html=1;align=center;verticalAlign=middle;resizable=0;points=[];autosize=1;strokeColor=none;fillColor=none;" parent="1" vertex="1">
          <mxGeometry x="880" y="390" width="50" height="30" as="geometry" />
        </mxCell>
        <mxCell id="T3Xej7vSK_ec-wnwtdvm-84" value="(1,1&lt;span style=&quot;color: rgba(0, 0, 0, 0); font-family: monospace; font-size: 0px; text-align: start;&quot;&gt;%3CmxGraphModel%3E%3Croot%3E%3CmxCell%20id%3D%220%22%2F%3E%3CmxCell%20id%3D%221%22%20parent%3D%220%22%2F%3E%3CmxCell%20id%3D%222%22%20value%3D%22%22%20style%3D%22endArrow%3Dnone%3Bhtml%3D1%3Brounded%3D0%3BentryX%3D0.25%3BentryY%3D1%3BentryDx%3D0%3BentryDy%3D0%3B%22%20edge%3D%221%22%20parent%3D%221%22%3E%3CmxGeometry%20width%3D%2250%22%20height%3D%2250%22%20relative%3D%221%22%20as%3D%22geometry%22%3E%3CmxPoint%20x%3D%22349.43%22%20y%3D%22430%22%20as%3D%22sourcePoint%22%2F%3E%3CmxPoint%20x%3D%22349.43%22%20y%3D%22400%22%20as%3D%22targetPoint%22%2F%3E%3C%2FmxGeometry%3E%3C%2FmxCell%3E%3CmxCell%20id%3D%223%22%20value%3D%22soste%22%20style%3D%22text%3Bhtml%3D1%3Balign%3Dcenter%3BverticalAlign%3Dmiddle%3Bresizable%3D0%3Bpoints%3D%5B%5D%3Bautosize%3D1%3BstrokeColor%3Dnone%3BfillColor%3Dnone%3B%22%20vertex%3D%221%22%20parent%3D%221%22%3E%3CmxGeometry%20x%3D%22325%22%20y%3D%22420%22%20width%3D%2250%22%20height%3D%2230%22%20as%3D%22geometry%22%2F%3E%3C%2FmxCell%3E%3C%2Froot%3E%3C%2FmxGraphModel%3&lt;/span&gt;)" style="text;html=1;align=center;verticalAlign=middle;resizable=0;points=[];autosize=1;strokeColor=none;fillColor=none;" parent="1" vertex="1">
          <mxGeometry x="292" y="620" width="50" height="30" as="geometry" />
        </mxCell>
        <mxCell id="T3Xej7vSK_ec-wnwtdvm-85" value="(1,n&lt;span style=&quot;color: rgba(0, 0, 0, 0); font-family: monospace; font-size: 0px; text-align: start;&quot;&gt;%3CmxGraphModel%3E%3Croot%3E%3CmxCell%20id%3D%220%22%2F%3E%3CmxCell%20id%3D%221%22%20parent%3D%220%22%2F%3E%3CmxCell%20id%3D%222%22%20value%3D%22%22%20style%3D%22endArrow%3Dnone%3Bhtml%3D1%3Brounded%3D0%3BentryX%3D0.25%3BentryY%3D1%3BentryDx%3D0%3BentryDy%3D0%3B%22%20edge%3D%221%22%20parent%3D%221%22%3E%3CmxGeometry%20width%3D%2250%22%20height%3D%2250%22%20relative%3D%221%22%20as%3D%22geometry%22%3E%3CmxPoint%20x%3D%22349.43%22%20y%3D%22430%22%20as%3D%22sourcePoint%22%2F%3E%3CmxPoint%20x%3D%22349.43%22%20y%3D%22400%22%20as%3D%22targetPoint%22%2F%3E%3C%2FmxGeometry%3E%3C%2FmxCell%3E%3CmxCell%20id%3D%223%22%20value%3D%22soste%22%20style%3D%22text%3Bhtml%3D1%3Balign%3Dcenter%3BverticalAlign%3Dmiddle%3Bresizable%3D0%3Bpoints%3D%5B%5D%3Bautosize%3D1%3BstrokeColor%3Dnone%3BfillColor%3Dnone%3B%22%20vertex%3D%221%22%20parent%3D%221%22%3E%3CmxGeometry%20x%3D%22325%22%20y%3D%22420%22%20width%3D%2250%22%20height%3D%2230%22%20as%3D%22geometry%22%2F%3E%3C%2FmxCell%3E%3C%2Froot%3E%3C%2FmxGraphModel%3&lt;/span&gt;)" style="text;html=1;align=center;verticalAlign=middle;resizable=0;points=[];autosize=1;strokeColor=none;fillColor=none;" parent="1" vertex="1">
          <mxGeometry x="122" y="400" width="50" height="30" as="geometry" />
        </mxCell>
        <mxCell id="T3Xej7vSK_ec-wnwtdvm-87" value="" style="endArrow=none;html=1;rounded=0;entryX=0;entryY=1;entryDx=0;entryDy=0;" parent="1" target="T3Xej7vSK_ec-wnwtdvm-4" edge="1">
          <mxGeometry width="50" height="50" relative="1" as="geometry">
            <mxPoint x="342" y="720" as="sourcePoint" />
            <mxPoint x="372" y="550" as="targetPoint" />
          </mxGeometry>
        </mxCell>
        <mxCell id="T3Xej7vSK_ec-wnwtdvm-88" value="id_feedback" style="text;html=1;align=center;verticalAlign=middle;resizable=0;points=[];autosize=1;strokeColor=none;fillColor=none;fontStyle=4" parent="1" vertex="1">
          <mxGeometry x="262" y="718" width="90" height="30" as="geometry" />
        </mxCell>
        <mxCell id="T3Xej7vSK_ec-wnwtdvm-89" value="" style="endArrow=none;html=1;rounded=0;entryX=0;entryY=1;entryDx=0;entryDy=0;" parent="1" edge="1">
          <mxGeometry width="50" height="50" relative="1" as="geometry">
            <mxPoint x="431.66" y="720" as="sourcePoint" />
            <mxPoint x="431.66" y="680" as="targetPoint" />
          </mxGeometry>
        </mxCell>
        <mxCell id="T3Xej7vSK_ec-wnwtdvm-90" value="id_autista" style="text;html=1;align=center;verticalAlign=middle;resizable=0;points=[];autosize=1;strokeColor=none;fillColor=none;" parent="1" vertex="1">
          <mxGeometry x="392" y="718" width="70" height="30" as="geometry" />
        </mxCell>
        <mxCell id="T3Xej7vSK_ec-wnwtdvm-91" value="" style="endArrow=none;html=1;rounded=0;entryX=0;entryY=1;entryDx=0;entryDy=0;" parent="1" edge="1">
          <mxGeometry width="50" height="50" relative="1" as="geometry">
            <mxPoint x="462" y="720" as="sourcePoint" />
            <mxPoint x="462" y="680" as="targetPoint" />
          </mxGeometry>
        </mxCell>
        <mxCell id="T3Xej7vSK_ec-wnwtdvm-92" value="id_utente" style="text;html=1;align=center;verticalAlign=middle;resizable=0;points=[];autosize=1;strokeColor=none;fillColor=none;" parent="1" vertex="1">
          <mxGeometry x="452" y="718" width="70" height="30" as="geometry" />
        </mxCell>
        <mxCell id="T3Xej7vSK_ec-wnwtdvm-93" value="" style="endArrow=none;html=1;rounded=0;exitX=1;exitY=0.75;exitDx=0;exitDy=0;" parent="1" source="T3Xej7vSK_ec-wnwtdvm-4" edge="1">
          <mxGeometry width="50" height="50" relative="1" as="geometry">
            <mxPoint x="412" y="540" as="sourcePoint" />
            <mxPoint x="492" y="690" as="targetPoint" />
          </mxGeometry>
        </mxCell>
        <mxCell id="T3Xej7vSK_ec-wnwtdvm-94" value="" style="endArrow=none;html=1;rounded=0;exitX=0;exitY=0.75;exitDx=0;exitDy=0;" parent="1" source="T3Xej7vSK_ec-wnwtdvm-4" edge="1">
          <mxGeometry width="50" height="50" relative="1" as="geometry">
            <mxPoint x="292" y="665" as="sourcePoint" />
            <mxPoint x="312" y="690" as="targetPoint" />
          </mxGeometry>
        </mxCell>
        <mxCell id="T3Xej7vSK_ec-wnwtdvm-95" value="recensione" style="text;html=1;align=center;verticalAlign=middle;resizable=0;points=[];autosize=1;strokeColor=none;fillColor=none;" parent="1" vertex="1">
          <mxGeometry x="242" y="680" width="80" height="30" as="geometry" />
        </mxCell>
        <mxCell id="T3Xej7vSK_ec-wnwtdvm-96" value="voto" style="text;html=1;align=center;verticalAlign=middle;resizable=0;points=[];autosize=1;strokeColor=none;fillColor=none;" parent="1" vertex="1">
          <mxGeometry x="487" y="680" width="50" height="30" as="geometry" />
        </mxCell>
        <mxCell id="T3Xej7vSK_ec-wnwtdvm-98" value="valuta" style="rhombus;whiteSpace=wrap;html=1;" parent="1" vertex="1">
          <mxGeometry x="362" y="480" width="80" height="80" as="geometry" />
        </mxCell>
        <mxCell id="T3Xej7vSK_ec-wnwtdvm-99" value="" style="endArrow=none;html=1;rounded=0;entryX=0.5;entryY=1;entryDx=0;entryDy=0;exitX=0.5;exitY=0;exitDx=0;exitDy=0;" parent="1" source="T3Xej7vSK_ec-wnwtdvm-4" target="T3Xej7vSK_ec-wnwtdvm-98" edge="1">
          <mxGeometry width="50" height="50" relative="1" as="geometry">
            <mxPoint x="300" y="590" as="sourcePoint" />
            <mxPoint x="350" y="540" as="targetPoint" />
          </mxGeometry>
        </mxCell>
        <mxCell id="T3Xej7vSK_ec-wnwtdvm-100" value="" style="endArrow=none;html=1;rounded=0;entryX=0.5;entryY=1;entryDx=0;entryDy=0;exitX=0.5;exitY=0;exitDx=0;exitDy=0;" parent="1" target="T3Xej7vSK_ec-wnwtdvm-2" edge="1">
          <mxGeometry width="50" height="50" relative="1" as="geometry">
            <mxPoint x="401.66" y="480" as="sourcePoint" />
            <mxPoint x="401.66" y="420" as="targetPoint" />
          </mxGeometry>
        </mxCell>
        <mxCell id="T3Xej7vSK_ec-wnwtdvm-101" value="" style="endArrow=none;html=1;rounded=0;entryX=0;entryY=1;entryDx=0;entryDy=0;" parent="1" edge="1">
          <mxGeometry width="50" height="50" relative="1" as="geometry">
            <mxPoint x="372" y="720" as="sourcePoint" />
            <mxPoint x="372" y="680" as="targetPoint" />
          </mxGeometry>
        </mxCell>
        <mxCell id="T3Xej7vSK_ec-wnwtdvm-102" value="id_viaggio" style="text;html=1;align=center;verticalAlign=middle;resizable=0;points=[];autosize=1;strokeColor=none;fillColor=none;" parent="1" vertex="1">
          <mxGeometry x="330" y="718" width="80" height="30" as="geometry" />
        </mxCell>
        <mxCell id="T3Xej7vSK_ec-wnwtdvm-103" value="(1,1)" style="text;html=1;align=center;verticalAlign=middle;resizable=0;points=[];autosize=1;strokeColor=none;fillColor=none;" parent="1" vertex="1">
          <mxGeometry x="402" y="590" width="50" height="30" as="geometry" />
        </mxCell>
        <mxCell id="T3Xej7vSK_ec-wnwtdvm-104" value="(1,n)" style="text;html=1;align=center;verticalAlign=middle;resizable=0;points=[];autosize=1;strokeColor=none;fillColor=none;" parent="1" vertex="1">
          <mxGeometry x="395" y="398" width="50" height="30" as="geometry" />
        </mxCell>
        <mxCell id="e47HHpmpgS9Zx7qBrA_f-1" value="partecipanti" style="rounded=0;whiteSpace=wrap;html=1;" parent="1" vertex="1">
          <mxGeometry x="620" y="335" width="120" height="60" as="geometry" />
        </mxCell>
        <mxCell id="e47HHpmpgS9Zx7qBrA_f-3" value="" style="endArrow=none;html=1;rounded=0;entryX=1;entryY=0.5;entryDx=0;entryDy=0;exitX=0;exitY=0.5;exitDx=0;exitDy=0;" parent="1" source="e47HHpmpgS9Zx7qBrA_f-1" edge="1">
          <mxGeometry width="50" height="50" relative="1" as="geometry">
            <mxPoint x="622" y="364.58" as="sourcePoint" />
            <mxPoint x="582" y="364.58" as="targetPoint" />
          </mxGeometry>
        </mxCell>
        <mxCell id="e47HHpmpgS9Zx7qBrA_f-4" value="partecipa" style="rhombus;whiteSpace=wrap;html=1;" parent="1" vertex="1">
          <mxGeometry x="780" y="325" width="80" height="80" as="geometry" />
        </mxCell>
        <mxCell id="e47HHpmpgS9Zx7qBrA_f-5" value="" style="endArrow=none;html=1;rounded=0;entryX=1;entryY=0.5;entryDx=0;entryDy=0;" parent="1" edge="1">
          <mxGeometry width="50" height="50" relative="1" as="geometry">
            <mxPoint x="780" y="364.71" as="sourcePoint" />
            <mxPoint x="740" y="364.71" as="targetPoint" />
          </mxGeometry>
        </mxCell>
        <mxCell id="e47HHpmpgS9Zx7qBrA_f-6" value="" style="endArrow=none;html=1;rounded=0;entryX=0;entryY=1;entryDx=0;entryDy=0;" parent="1" edge="1">
          <mxGeometry width="50" height="50" relative="1" as="geometry">
            <mxPoint x="620" y="335" as="sourcePoint" />
            <mxPoint x="620" y="265" as="targetPoint" />
          </mxGeometry>
        </mxCell>
        <mxCell id="e47HHpmpgS9Zx7qBrA_f-7" value="" style="endArrow=none;html=1;rounded=0;entryX=0;entryY=1;entryDx=0;entryDy=0;" parent="1" edge="1">
          <mxGeometry width="50" height="50" relative="1" as="geometry">
            <mxPoint x="679.71" y="335" as="sourcePoint" />
            <mxPoint x="679.71" y="265" as="targetPoint" />
          </mxGeometry>
        </mxCell>
        <mxCell id="e47HHpmpgS9Zx7qBrA_f-8" value="" style="endArrow=none;html=1;rounded=0;entryX=0;entryY=1;entryDx=0;entryDy=0;" parent="1" edge="1">
          <mxGeometry width="50" height="50" relative="1" as="geometry">
            <mxPoint x="740" y="335" as="sourcePoint" />
            <mxPoint x="740" y="265" as="targetPoint" />
          </mxGeometry>
        </mxCell>
        <mxCell id="e47HHpmpgS9Zx7qBrA_f-9" value="&lt;u&gt;id_partecipa&lt;/u&gt;" style="text;html=1;align=center;verticalAlign=middle;resizable=0;points=[];autosize=1;strokeColor=none;fillColor=none;" parent="1" vertex="1">
          <mxGeometry x="555" y="233" width="90" height="30" as="geometry" />
        </mxCell>
        <mxCell id="e47HHpmpgS9Zx7qBrA_f-10" value="id_viaggio" style="text;html=1;align=center;verticalAlign=middle;resizable=0;points=[];autosize=1;strokeColor=none;fillColor=none;" parent="1" vertex="1">
          <mxGeometry x="640" y="233" width="80" height="30" as="geometry" />
        </mxCell>
        <mxCell id="e47HHpmpgS9Zx7qBrA_f-11" value="id_passeggero" style="text;html=1;align=center;verticalAlign=middle;resizable=0;points=[];autosize=1;strokeColor=none;fillColor=none;" parent="1" vertex="1">
          <mxGeometry x="720" y="233" width="100" height="30" as="geometry" />
        </mxCell>
        <mxCell id="e47HHpmpgS9Zx7qBrA_f-12" value="(1,1&lt;span style=&quot;color: rgba(0, 0, 0, 0); font-family: monospace; font-size: 0px; text-align: start;&quot;&gt;%3CmxGraphModel%3E%3Croot%3E%3CmxCell%20id%3D%220%22%2F%3E%3CmxCell%20id%3D%221%22%20parent%3D%220%22%2F%3E%3CmxCell%20id%3D%222%22%20value%3D%22%22%20style%3D%22endArrow%3Dnone%3Bhtml%3D1%3Brounded%3D0%3BentryX%3D0.25%3BentryY%3D1%3BentryDx%3D0%3BentryDy%3D0%3B%22%20edge%3D%221%22%20parent%3D%221%22%3E%3CmxGeometry%20width%3D%2250%22%20height%3D%2250%22%20relative%3D%221%22%20as%3D%22geometry%22%3E%3CmxPoint%20x%3D%22349.43%22%20y%3D%22430%22%20as%3D%22sourcePoint%22%2F%3E%3CmxPoint%20x%3D%22349.43%22%20y%3D%22400%22%20as%3D%22targetPoint%22%2F%3E%3C%2FmxGeometry%3E%3C%2FmxCell%3E%3CmxCell%20id%3D%223%22%20value%3D%22soste%22%20style%3D%22text%3Bhtml%3D1%3Balign%3Dcenter%3BverticalAlign%3Dmiddle%3Bresizable%3D0%3Bpoints%3D%5B%5D%3Bautosize%3D1%3BstrokeColor%3Dnone%3BfillColor%3Dnone%3B%22%20vertex%3D%221%22%20parent%3D%221%22%3E%3CmxGeometry%20x%3D%22325%22%20y%3D%22420%22%20width%3D%2250%22%20height%3D%2230%22%20as%3D%22geometry%22%2F%3E%3C%2FmxCell%3E%3C%2Froot%3E%3C%2FmxGraphModel%3&lt;/span&gt;)" style="text;html=1;align=center;verticalAlign=middle;resizable=0;points=[];autosize=1;strokeColor=none;fillColor=none;" parent="1" vertex="1">
          <mxGeometry x="582" y="340" width="50" height="30" as="geometry" />
        </mxCell>
        <mxCell id="e47HHpmpgS9Zx7qBrA_f-13" value="(1,1)" style="text;html=1;align=center;verticalAlign=middle;resizable=0;points=[];autosize=1;strokeColor=none;fillColor=none;" parent="1" vertex="1">
          <mxGeometry x="730" y="335" width="50" height="30" as="geometry" />
        </mxCell>
        <mxCell id="e47HHpmpgS9Zx7qBrA_f-14" value="" style="endArrow=none;html=1;rounded=0;exitX=1;exitY=1;exitDx=0;exitDy=0;" parent="1" source="T3Xej7vSK_ec-wnwtdvm-3" edge="1">
          <mxGeometry width="50" height="50" relative="1" as="geometry">
            <mxPoint x="470" y="500" as="sourcePoint" />
            <mxPoint x="1050" y="400" as="targetPoint" />
          </mxGeometry>
        </mxCell>
        <mxCell id="e47HHpmpgS9Zx7qBrA_f-15" value="" style="endArrow=none;html=1;rounded=0;entryX=0;entryY=0;entryDx=0;entryDy=0;" parent="1" target="T3Xej7vSK_ec-wnwtdvm-1" edge="1">
          <mxGeometry width="50" height="50" relative="1" as="geometry">
            <mxPoint x="20" y="310" as="sourcePoint" />
            <mxPoint x="50" y="319.43" as="targetPoint" />
          </mxGeometry>
        </mxCell>
        <mxCell id="e47HHpmpgS9Zx7qBrA_f-16" value="password" style="text;html=1;align=center;verticalAlign=middle;resizable=0;points=[];autosize=1;strokeColor=none;fillColor=none;" parent="1" vertex="1">
          <mxGeometry x="-35" y="278" width="70" height="30" as="geometry" />
        </mxCell>
        <mxCell id="e47HHpmpgS9Zx7qBrA_f-17" value="password" style="text;html=1;align=center;verticalAlign=middle;resizable=0;points=[];autosize=1;strokeColor=none;fillColor=none;" parent="1" vertex="1">
          <mxGeometry x="1055" y="380" width="70" height="30" as="geometry" />
        </mxCell>
        <mxCell id="K2XmwcmNwMFjRqhOZghn-1" value="" style="endArrow=none;html=1;rounded=0;exitX=1;exitY=0;exitDx=0;exitDy=0;" edge="1" parent="1" source="T3Xej7vSK_ec-wnwtdvm-4">
          <mxGeometry width="50" height="50" relative="1" as="geometry">
            <mxPoint x="472" y="675" as="sourcePoint" />
            <mxPoint x="480" y="600" as="targetPoint" />
          </mxGeometry>
        </mxCell>
        <mxCell id="K2XmwcmNwMFjRqhOZghn-2" value="Recensitore" style="text;html=1;align=center;verticalAlign=middle;resizable=0;points=[];autosize=1;strokeColor=none;fillColor=none;" vertex="1" parent="1">
          <mxGeometry x="477" y="578" width="90" height="30" as="geometry" />
        </mxCell>
        <mxCell id="K2XmwcmNwMFjRqhOZghn-3" value="" style="endArrow=none;html=1;rounded=0;entryX=0;entryY=1;entryDx=0;entryDy=0;" edge="1" parent="1">
          <mxGeometry width="50" height="50" relative="1" as="geometry">
            <mxPoint x="679.76" y="465" as="sourcePoint" />
            <mxPoint x="679.76" y="395" as="targetPoint" />
          </mxGeometry>
        </mxCell>
        <mxCell id="K2XmwcmNwMFjRqhOZghn-4" value="stato" style="text;html=1;align=center;verticalAlign=middle;resizable=0;points=[];autosize=1;strokeColor=none;fillColor=none;" vertex="1" parent="1">
          <mxGeometry x="655" y="460" width="50" height="30" as="geometry" />
        </mxCell>
      </root>
    </mxGraphModel>
  </diagram>
</mxfile>
